<svg width="70" height="25" viewBox="0 0 70 25" fill="none" xmlns="http://www.w3.org/2000/svg">
<path d="M0.292892 7.29289C-0.0976315 7.68342 -0.0976315 8.31658 0.292892 8.70711L6.65685 15.0711C7.04738 15.4616 7.68054 15.4616 8.07107 15.0711C8.46159 14.6805 8.46159 14.0474 8.07107 13.6569L2.41421 8L8.07107 2.34315C8.46159 1.95262 8.46159 1.31946 8.07107 0.928932C7.68054 0.538408 7.04738 0.538408 6.65685 0.928932L0.292892 7.29289ZM26 7L1 7V9L26 9V7Z" fill="#949494"/>
<path d="M69.7071 8.70711C70.0976 8.31658 70.0976 7.68342 69.7071 7.29289L63.3431 0.928932C62.9526 0.538408 62.3195 0.538408 61.9289 0.928932C61.5384 1.31946 61.5384 1.95262 61.9289 2.34315L67.5858 8L61.9289 13.6569C61.5384 14.0474 61.5384 14.6805 61.9289 15.0711C62.3195 15.4616 62.9526 15.4616 63.3431 15.0711L69.7071 8.70711ZM44 9H69V7H44V9Z" fill="#949494"/>
<path d="M42.078 13.4387C41.0419 12.3706 39.7146 11.6307 38.2613 11.311C37.1943 11.0428 36.1002 10.8974 35.0002 10.8776V7.93318C34.9828 7.4341 34.7685 6.96222 34.4041 6.62074C34.0397 6.27926 33.5549 6.09597 33.0558 6.11096C32.5566 6.09597 32.0718 6.27926 31.7074 6.62074C31.3431 6.96222 31.1287 7.4341 31.1113 7.93318V13.4887L30.2224 12.611C29.8309 12.2269 29.3043 12.0117 28.7558 12.0117C28.2073 12.0117 27.6807 12.2269 27.2891 12.611C27.0929 12.8005 26.9368 13.0275 26.8299 13.2784C26.723 13.5294 26.6676 13.7993 26.6669 14.0721C26.6567 14.601 26.8564 15.1123 27.2224 15.4943L29.8113 18.561C29.9362 19.3445 30.2056 20.098 30.6058 20.7832C30.8981 21.3101 31.2733 21.7865 31.7169 22.1943V23.261C31.7151 23.4131 31.7718 23.56 31.8751 23.6717C31.9784 23.7833 32.1206 23.851 32.2724 23.861H40.0002C40.152 23.851 40.2942 23.7833 40.3975 23.6717C40.5009 23.56 40.5575 23.4131 40.5558 23.261V21.761C41.6474 20.4611 42.2385 18.8139 42.2224 17.1165V13.7832C42.2155 13.6551 42.1644 13.5334 42.078 13.4387ZM41.1113 17.1443C41.1468 18.6214 40.632 20.0589 39.6669 21.1776C39.5442 21.2775 39.4647 21.4207 39.4447 21.5776V22.7776H32.8558V21.9554C32.8559 21.8644 32.8337 21.7748 32.7911 21.6944C32.7484 21.614 32.6867 21.5453 32.6113 21.4943C32.195 21.153 31.8512 20.7317 31.6002 20.2554C31.2463 19.6561 31.0194 18.9905 30.9335 18.2998C30.9276 18.1796 30.8827 18.0646 30.8058 17.9721L28.0724 14.7387C27.9834 14.6509 27.9127 14.5462 27.8645 14.4308C27.8162 14.3154 27.7914 14.1916 27.7914 14.0665C27.7914 13.9414 27.8162 13.8176 27.8645 13.7022C27.9127 13.5868 27.9834 13.4821 28.0724 13.3943C28.2554 13.2141 28.5018 13.1132 28.7585 13.1132C29.0153 13.1132 29.2617 13.2141 29.4447 13.3943L31.1113 15.061V16.8054L32.2224 16.2498V7.93318C32.2422 7.7298 32.3401 7.54203 32.4955 7.40939C32.651 7.27675 32.8518 7.2096 33.0558 7.22207C33.2597 7.2096 33.4606 7.27675 33.616 7.40939C33.7714 7.54203 33.8693 7.7298 33.8891 7.93318V14.4887L35.0002 14.7276V11.9943C35.4664 12.0035 35.9319 12.0369 36.3947 12.0943V14.9998L37.2835 15.1943V12.2221C37.5113 12.2665 37.7447 12.3165 37.9835 12.3776C38.2716 12.453 38.5553 12.5439 38.8335 12.6498V15.511L39.7224 15.7054V13.0554C40.2274 13.3103 40.6948 13.6337 41.1113 14.0165V17.1443Z" fill="#949494"/>
</svg>
