<svg width="30" height="30" viewBox="0 0 30 30" fill="none" xmlns="http://www.w3.org/2000/svg">
<path fill-rule="evenodd" clip-rule="evenodd" d="M21.7688 17.8906C21.3963 17.7053 19.57 16.8121 19.23 16.6877C18.89 16.5646 18.6425 16.5036 18.3938 16.8743C18.1463 17.2425 17.435 18.076 17.2188 18.3223C17.0013 18.5698 16.785 18.5997 16.4138 18.4156C16.0425 18.229 14.845 17.8396 13.4263 16.5807C12.3225 15.6005 11.5763 14.3901 11.36 14.0194C11.1438 13.65 11.3363 13.4497 11.5225 13.2656C11.69 13.1001 11.8938 12.8339 12.08 12.6187C12.2663 12.4023 12.3275 12.248 12.4513 12.0005C12.5763 11.7542 12.5138 11.539 12.42 11.3536C12.3275 11.1683 11.585 9.34838 11.275 8.60822C10.9738 7.88797 10.6675 7.98625 10.44 7.97381C10.2225 7.96385 9.975 7.96137 9.7275 7.96137C9.48 7.96137 9.0775 8.05342 8.7375 8.42412C8.39625 8.79357 7.4375 9.68798 7.4375 11.5079C7.4375 13.3265 8.7675 15.0843 8.95375 15.3318C9.14 15.5781 11.5725 19.3125 15.2988 20.9134C16.1863 21.2941 16.8775 21.5217 17.4163 21.6909C18.3063 21.9733 19.1163 21.9335 19.7563 21.8377C20.4688 21.732 21.9538 20.9433 22.2638 20.08C22.5725 19.2167 22.5725 18.4765 22.48 18.3223C22.3875 18.168 22.14 18.076 21.7675 17.8906H21.7688ZM14.9913 27.0996H14.9863C12.773 27.1 10.6005 26.5079 8.69625 25.3854L8.24625 25.1192L3.56875 26.3408L4.8175 21.8029L4.52375 21.3376C3.28642 19.3776 2.63162 17.1091 2.635 14.7944C2.6375 8.01486 8.18 2.49916 14.9963 2.49916C18.2963 2.49916 21.3988 3.78043 23.7313 6.10414C24.8817 7.24433 25.7936 8.60022 26.4141 10.0934C27.0346 11.5865 27.3514 13.1873 27.3463 14.8031C27.3438 21.5827 21.8013 27.0996 14.9913 27.0996ZM25.5063 4.33897C24.129 2.95933 22.4903 1.86541 20.6851 1.12061C18.8799 0.375805 16.9442 -0.00507067 14.99 5.09742e-05C6.7975 5.09742e-05 0.1275 6.63655 0.125 14.7932C0.12375 17.4005 0.8075 19.9456 2.10875 22.1885L0 29.855L7.88 27.7975C10.0598 28.9794 12.5026 29.5987 14.985 29.5987H14.9913C23.1838 29.5987 29.8538 22.9622 29.8563 14.8044C29.8623 12.8604 29.481 10.9345 28.7343 9.13819C27.9876 7.34183 26.8905 5.71064 25.5063 4.33897Z" fill="white"/>
</svg>
