<svg width="33" height="29" viewBox="0 0 33 29" fill="none" xmlns="http://www.w3.org/2000/svg">
<path d="M30.5569 0.00295493C30.1494 0.0318234 29.7494 0.124912 29.3725 0.27859H29.3674C29.0056 0.418262 27.2854 1.1228 24.6702 2.19073L15.2985 6.03356C8.57388 8.78991 1.96348 11.5042 1.96348 11.5042L2.04219 11.4746C2.04219 11.4746 1.58643 11.6204 1.11036 11.9381C0.81625 12.1203 0.563165 12.3587 0.366423 12.6389C0.132831 12.9727 -0.0550586 13.4831 0.0147651 14.0109C0.129022 14.9033 0.723158 15.4385 1.14972 15.7339C1.58136 16.0331 1.99268 16.1727 1.99268 16.1727H2.00284L8.20192 18.206C8.47994 19.0749 10.091 24.2317 10.4782 25.4195C10.7067 26.129 10.9288 26.5727 11.2069 26.9114C11.3414 27.0844 11.4989 27.2291 11.688 27.3452C11.7864 27.4009 11.8912 27.4449 12.0003 27.4763L11.9368 27.4614C11.9559 27.4664 11.9711 27.4812 11.9851 27.4862C12.0359 27.4998 12.0701 27.5047 12.1349 27.5146C13.1162 27.8038 13.9046 27.2105 13.9046 27.2105L13.949 27.1759L17.6091 23.9313L23.7434 28.5133L23.8831 28.5714C25.1615 29.1177 26.4564 28.8137 27.1406 28.2772C27.83 27.7371 28.0979 27.0461 28.0979 27.0461L28.1423 26.9349L32.8827 3.2908C33.0173 2.7074 33.0515 2.16107 32.903 1.63081C32.7498 1.09416 32.3962 0.632599 31.9115 0.336684C31.5045 0.0957994 31.0326 -0.0204697 30.5569 0.00295493ZM30.4287 2.53682C30.4236 2.61469 30.4389 2.60604 30.4033 2.7556V2.7692L25.7074 26.1673C25.687 26.2007 25.6528 26.2736 25.5588 26.3465C25.4598 26.4232 25.3811 26.4714 24.9685 26.3119L17.4656 20.7115L12.9334 24.7335L13.8856 18.8129L26.1441 7.68861C26.6493 7.23128 26.4805 7.13487 26.4805 7.13487C26.516 6.57371 25.7175 6.97047 25.7175 6.97047L10.2598 16.2939L10.2547 16.2692L2.8458 13.8403V13.8354L2.82676 13.8317C2.83975 13.8275 2.85246 13.8225 2.86484 13.8169L2.90547 13.7971L2.94482 13.7835C2.94482 13.7835 9.5603 11.0692 16.285 8.31281C19.6517 6.93216 23.0439 5.54162 25.6528 4.46874C28.2616 3.40205 30.19 2.61964 30.2992 2.57761C30.4033 2.53806 30.3538 2.53806 30.4287 2.53806V2.53682Z" fill="white"/>
</svg>
